name analog
datacolumns 19
datarows 58
range 0.1585 0.187
endheader
time	ground_force_vx	ground_force_vy	ground_force_vz	ground_force_px	ground_force_py	ground_force_pz	l_ground_force_vx	l_ground_force_vy	l_ground_force_vz	l_ground_force_px	l_ground_force_py	l_ground_force_pz	ground_torque_x	ground_torque_y	ground_torque_z	l_ground_torque_x	l_ground_torque_y	l_ground_torque_z
0.1585	-0.0	-0.0	-0.0	-0.0	-0.0	-0.0	-8.024774551391602	4.745522975921631	-773.719970703125	-0.0	-0.0	-0.0	-0.0	-0.0	-0.0	221625.546875	8690.0791015625	-4108.96630859375
0.159	-0.0	-0.0	-0.0	-0.0	-0.0	-0.0	-7.824173450469971	4.8835930824279785	-773.4970703125	-0.0	-0.0	-0.0	-0.0	-0.0	-0.0	221923.28125	8673.654296875	-4054.1787109375
0.1595	-0.0	-0.0	-0.0	-0.0	-0.0	-0.0	-7.503770351409912	4.576638221740723	-772.689453125	-0.0	-0.0	-0.0	-0.0	-0.0	-0.0	222152.828125	8509.9375	-3996.85302734375
0.16	-0.0	-0.0	-0.0	-0.0	-0.0	-0.0	-6.9903244972229	4.01771879196167	-772.3991088867188	-0.0	-0.0	-0.0	-0.0	-0.0	-0.0	222005.5625	8364.4599609375	-4054.547119140625
0.1605	-0.0	-0.0	-0.0	-0.0	-0.0	-0.0	-6.662234783172607	3.783203363418579	-769.1458740234375	-0.0	-0.0	-0.0	-0.0	-0.0	-0.0	221825.359375	7940.10400390625	-3981.743408203125
0.161	-0.0	-0.0	-0.0	-0.0	-0.0	-0.0	-6.040464401245117	3.927095413208008	-770.6278686523438	-0.0	-0.0	-0.0	-0.0	-0.0	-0.0	222251.9375	7710.9189453125	-4000.0849609375
0.1615	-0.0	-0.0	-0.0	-0.0	-0.0	-0.0	-5.028581619262695	5.15519905090332	-770.96337890625	-0.0	-0.0	-0.0	-0.0	-0.0	-0.0	222695.921875	7359.2099609375	-3842.192626953125
0.162	-0.0	-0.0	-0.0	-0.0	-0.0	-0.0	-4.174141883850098	6.212741851806641	-771.1751098632812	-0.0	-0.0	-0.0	-0.0	-0.0	-0.0	222789.59375	7085.78955078125	-3632.943115234375
0.1625	-0.0	-0.0	-0.0	-0.0	-0.0	-0.0	-3.3575968742370605	7.232726573944092	-769.0519409179688	-0.0	-0.0	-0.0	-0.0	-0.0	-0.0	222822.84375	6729.7890625	-3530.571533203125
0.163	-0.0	-0.0	-0.0	-0.0	-0.0	-0.0	-2.7943897247314453	7.864805221557617	-767.6553344726562	-0.0	-0.0	-0.0	-0.0	-0.0	-0.0	222543.609375	6360.853515625	-3303.656494140625
0.1635	-0.0	-0.0	-0.0	-0.0	-0.0	-0.0	-2.511781692504883	8.015851974487305	-765.9935302734375	-0.0	-0.0	-0.0	-0.0	-0.0	-0.0	222468.09375	5902.021484375	-3021.141845703125
0.164	-0.0	-0.0	-0.0	-0.0	-0.0	-0.0	-1.9382317066192627	7.843742370605469	-764.8267822265625	-0.0	-0.0	-0.0	-0.0	-0.0	-0.0	222168.890625	5520.759765625	-2780.389892578125
0.1645	-0.0	-0.0	-0.0	-0.0	-0.0	-0.0	-1.41937255859375	7.761954307556152	-763.4163818359375	-0.0	-0.0	-0.0	-0.0	-0.0	-0.0	221757.90625	5241.39794921875	-2483.247802734375
0.165	-0.0	-0.0	-0.0	-0.0	-0.0	-0.0	-0.593503475189209	8.020794868469238	-762.295654296875	-0.0	-0.0	-0.0	-0.0	-0.0	-0.0	221260.03125	4745.77587890625	-2257.391357421875
0.1655	-0.0	-0.0	-0.0	-0.0	-0.0	-0.0	0.078018307685852	8.512365341186523	-760.9755859375	-0.0	-0.0	-0.0	-0.0	-0.0	-0.0	221240.234375	4469.41845703125	-2062.933837890625
0.166	-0.0	-0.0	-0.0	-0.0	-0.0	-0.0	0.6237373948097229	8.912267684936523	-759.2625732421875	-0.0	-0.0	-0.0	-0.0	-0.0	-0.0	220983.84375	4153.9462890625	-1910.7138671875
0.1665	-0.0	-0.0	-0.0	-0.0	-0.0	-0.0	0.7651236653327942	9.26271629333496	-758.0953979492188	-0.0	-0.0	-0.0	-0.0	-0.0	-0.0	220623.265625	3965.171875	-1758.4078369140625
0.167	-0.0	-0.0	-0.0	-0.0	-0.0	-0.0	0.5460130572319031	9.268266677856444	-756.3384399414062	-0.0	-0.0	-0.0	-0.0	-0.0	-0.0	220343.34375	3627.156982421875	-1706.6097412109375
0.1675	-0.0	-0.0	-0.0	-0.0	-0.0	-0.0	1.009200096130371	9.527816772460938	-755.5416259765625	-0.0	-0.0	-0.0	-0.0	-0.0	-0.0	220173.78125	3424.9951171875	-1595.0513916015625
0.168	-0.0	-0.0	-0.0	-0.0	-0.0	-0.0	1.3059033155441284	9.812339782714844	-754.4179077148438	-0.0	-0.0	-0.0	-0.0	-0.0	-0.0	220095.109375	2984.863525390625	-1461.3880615234375
0.1685	-0.0	-0.0	-0.0	-0.0	-0.0	-0.0	1.6302825212478638	9.89379596710205	-754.2600708007812	-0.0	-0.0	-0.0	-0.0	-0.0	-0.0	220338.40625	2695.29541015625	-1227.681884765625
0.169	-0.0	-0.0	-0.0	-0.0	-0.0	-0.0	1.7676821947097778	9.79776096343994	-755.304443359375	-0.0	-0.0	-0.0	-0.0	-0.0	-0.0	220039.015625	2314.916015625	-1097.6414794921875
0.1695	-0.0	-0.0	-0.0	-0.0	-0.0	-0.0	2.0127902030944824	9.776302337646484	-756.39501953125	-0.0	-0.0	-0.0	-0.0	-0.0	-0.0	220424.125	2095.70556640625	-962.1746826171876
0.17	-0.0	-0.0	-0.0	-0.0	-0.0	-0.0	2.423534870147705	9.985658645629885	-757.6566162109375	-0.0	-0.0	-0.0	-0.0	-0.0	-0.0	220902.21875	1719.6402587890625	-854.2142944335938
0.1705	-0.0	-0.0	-0.0	-0.0	-0.0	-0.0	2.89371109008789	10.169462203979492	-759.67041015625	-0.0	-0.0	-0.0	-0.0	-0.0	-0.0	221449.703125	1560.6671142578125	-766.6239624023438
0.171	-0.0	-0.0	-0.0	-0.0	-0.0	-0.0	3.1069436073303223	10.698572158813477	-760.4309692382812	-0.0	-0.0	-0.0	-0.0	-0.0	-0.0	221863.5	1606.6563720703125	-507.45306396484375
0.1715	-0.0	-0.0	-0.0	-0.0	-0.0	-0.0	3.0581979751586914	10.874045372009276	-761.73193359375	-0.0	-0.0	-0.0	-0.0	-0.0	-0.0	222113.421875	1431.8846435546875	-560.83154296875
0.17200000000000001	-0.0	-0.0	-0.0	-0.0	-0.0	-0.0	2.9718592166900635	10.769474029541016	-762.5372314453125	-0.0	-0.0	-0.0	-0.0	-0.0	-0.0	222340.59375	1332.0040283203125	-581.4544067382812
0.17250000000000001	-0.0	-0.0	-0.0	-0.0	-0.0	-0.0	2.7029027938842773	10.237730026245115	-761.1805419921875	-0.0	-0.0	-0.0	-0.0	-0.0	-0.0	222148.234375	1063.1353759765625	-614.0178833007812
0.17300000000000001	-0.0	-0.0	-0.0	-0.0	-0.0	-0.0	2.724245548248291	9.781005859375	-760.1316528320312	-0.0	-0.0	-0.0	-0.0	-0.0	-0.0	221846.546875	1210.7254638671875	-546.0919799804688
0.17350000000000002	-0.0	-0.0	-0.0	-0.0	-0.0	-0.0	2.48361873626709	9.239848136901855	-758.747802734375	-0.0	-0.0	-0.0	-0.0	-0.0	-0.0	221681.3125	882.64990234375	-640.4845581054688
0.17400000000000002	-0.0	-0.0	-0.0	-0.0	-0.0	-0.0	2.5809764862060547	8.657301902770996	-758.5918579101562	-0.0	-0.0	-0.0	-0.0	-0.0	-0.0	221519.125	536.8345336914062	-679.9520263671875
0.17450000000000002	-0.0	-0.0	-0.0	-0.0	-0.0	-0.0	2.913515090942383	8.336305618286133	-758.3572998046875	-0.0	-0.0	-0.0	-0.0	-0.0	-0.0	221702.6875	197.49465942382807	-698.8486938476562
0.17500000000000002	-0.0	-0.0	-0.0	-0.0	-0.0	-0.0	3.217289686203003	8.151114463806152	-759.4185791015625	-0.0	-0.0	-0.0	-0.0	-0.0	-0.0	221587.109375	-237.95220947265625	-596.6958618164062
0.17550000000000002	-0.0	-0.0	-0.0	-0.0	-0.0	-0.0	3.237966537475586	7.755254745483398	-758.7626953125	-0.0	-0.0	-0.0	-0.0	-0.0	-0.0	221309.6875	-728.8373413085938	-622.0486450195312
0.176	-0.0	-0.0	-0.0	-0.0	-0.0	-0.0	3.222084283828736	7.171144485473633	-759.0106201171875	-0.0	-0.0	-0.0	-0.0	-0.0	-0.0	221463.375	-1499.79052734375	-669.807861328125
0.1765	-0.0	-0.0	-0.0	-0.0	-0.0	-0.0	3.296888589859009	6.977413177490234	-758.4927978515625	-0.0	-0.0	-0.0	-0.0	-0.0	-0.0	221358.40625	-1848.5960693359373	-762.2694091796875
0.177	-0.0	-0.0	-0.0	-0.0	-0.0	-0.0	3.034649133682251	6.644967555999756	-760.5687255859375	-0.0	-0.0	-0.0	-0.0	-0.0	-0.0	221497.890625	-2428.855712890625	-811.9150390625
0.1775	-0.0	-0.0	-0.0	-0.0	-0.0	-0.0	3.477022647857666	6.670510292053223	-761.7122802734375	-0.0	-0.0	-0.0	-0.0	-0.0	-0.0	221836.515625	-3128.728759765625	-799.2866821289062
0.178	-0.0	-0.0	-0.0	-0.0	-0.0	-0.0	4.096357345581055	6.850863933563232	-761.7084350585938	-0.0	-0.0	-0.0	-0.0	-0.0	-0.0	222121.84375	-3819.138427734375	-705.1254272460938
0.1785	-0.0	-0.0	-0.0	-0.0	-0.0	-0.0	4.825072288513184	6.835307598114014	-763.1245727539062	-0.0	-0.0	-0.0	-0.0	-0.0	-0.0	222788.984375	-4137.57080078125	-404.9929809570313
0.179	-0.0	-0.0	-0.0	-0.0	-0.0	-0.0	5.453799724578857	6.534828186035156	-765.6820678710938	-0.0	-0.0	-0.0	-0.0	-0.0	-0.0	222935.109375	-4909.56591796875	-234.66493225097656
0.1795	-0.0	-0.0	-0.0	-0.0	-0.0	-0.0	5.587055206298828	6.341849327087402	-766.03857421875	-0.0	-0.0	-0.0	-0.0	-0.0	-0.0	223023.375	-5436.29638671875	-145.93902587890625
0.18	-0.0	-0.0	-0.0	-0.0	-0.0	-0.0	5.615639686584473	5.893152713775635	-766.2944946289062	-0.0	-0.0	-0.0	-0.0	-0.0	-0.0	222923.296875	-5764.53369140625	-123.2362060546875
0.1805	-0.0	-0.0	-0.0	-0.0	-0.0	-0.0	5.569880962371826	5.706156730651856	-763.7319946289062	-0.0	-0.0	-0.0	-0.0	-0.0	-0.0	222203.296875	-6129.65478515625	-95.25372314453124
0.181	-0.0	-0.0	-0.0	-0.0	-0.0	-0.0	5.605609893798828	5.736248970031738	-762.2300415039062	-0.0	-0.0	-0.0	-0.0	-0.0	-0.0	221589.9375	-6555.12060546875	-68.07134246826172
0.1815	-0.0	-0.0	-0.0	-0.0	-0.0	-0.0	5.695082664489746	5.343398094177246	-758.6325073242188	-0.0	-0.0	-0.0	-0.0	-0.0	-0.0	220656.15625	-7031.0927734375	-116.00043487548828
0.182	-0.0	-0.0	-0.0	-0.0	-0.0	-0.0	5.92826509475708	5.058351993560791	-756.2537231445312	-0.0	-0.0	-0.0	-0.0	-0.0	-0.0	219893.4375	-7717.8369140625	-56.58977508544922
0.1825	-0.0	-0.0	-0.0	-0.0	-0.0	-0.0	6.33202600479126	4.840986251831055	-754.0291137695312	-0.0	-0.0	-0.0	-0.0	-0.0	-0.0	219272.453125	-8056.82861328125	207.2339630126953
0.183	-0.0	-0.0	-0.0	-0.0	-0.0	-0.0	7.175982475280762	5.2194132804870605	-753.1229248046875	-0.0	-0.0	-0.0	-0.0	-0.0	-0.0	218750.15625	-8478.4873046875	355.24224853515625
0.1835	-0.0	-0.0	-0.0	-0.0	-0.0	-0.0	7.683050155639648	5.56374454498291	-751.4794921875	-0.0	-0.0	-0.0	-0.0	-0.0	-0.0	218314.421875	-9035.505859375	617.8493041992188
0.184	-0.0	-0.0	-0.0	-0.0	-0.0	-0.0	7.882124900817871	5.749817371368408	-750.0478515625	-0.0	-0.0	-0.0	-0.0	-0.0	-0.0	217956.6875	-9583.037109375	822.7318725585938
0.1845	-0.0	-0.0	-0.0	-0.0	-0.0	-0.0	8.587523460388184	6.34181547164917	-749.9091186523438	-0.0	-0.0	-0.0	-0.0	-0.0	-0.0	217167.28125	-10212.5263671875	1034.307861328125
0.185	-0.0	-0.0	-0.0	-0.0	-0.0	-0.0	9.385568618774414	5.754094123840332	-747.6906127929688	-0.0	-0.0	-0.0	-0.0	-0.0	-0.0	217208.78125	-10771.3720703125	1257.0247802734375
0.1855	-0.0	-0.0	-0.0	-0.0	-0.0	-0.0	9.704864501953123	5.025631904602051	-747.7083129882812	-0.0	-0.0	-0.0	-0.0	-0.0	-0.0	216856.171875	-11076.462890625	1334.118408203125
0.186	-0.0	-0.0	-0.0	-0.0	-0.0	-0.0	9.691670417785645	4.906848907470703	-746.8880615234375	-0.0	-0.0	-0.0	-0.0	-0.0	-0.0	216667.34375	-11182.2158203125	1322.3211669921875
0.1865	-0.0	-0.0	-0.0	-0.0	-0.0	-0.0	9.810511589050291	5.440466403961182	-746.695068359375	-0.0	-0.0	-0.0	-0.0	-0.0	-0.0	216726.96875	-11518.83203125	1372.9049072265625
0.187	-0.0	-0.0	-0.0	-0.0	-0.0	-0.0	10.521607398986816	6.329035758972168	-747.2041015625	-0.0	-0.0	-0.0	-0.0	-0.0	-0.0	216981.953125	-11959.4091796875	1357.5938720703125
